<svg xmlns="http://www.w3.org/2000/svg" width="400" viewBox="0 0 300 75" height="100" version="1.0"><path d="M17.27 49.565h4.368V30.338H17.27v7.391H9.747v-7.39H5.38v19.226h4.367v-7.746h7.523ZM28.335 49.565h12.934v-3.707h-8.594v-4.203h7.55v-3.652h-7.55v-3.985h8.293v-3.68H28.335ZM45 49.565h4.671l1.29-3.324h7.636l1.29 3.324h4.667l-7.633-19.227h-4.285Zm7.085-6.758 2.692-7.031 2.718 7.031ZM69.193 49.565H76.8c6.07 0 10.137-3.871 10.137-9.613 0-5.711-4.067-9.614-10.137-9.614h-7.606Zm4.368-4.012V34.35h3.101c3.461 0 5.797 2.223 5.797 5.602 0 3.379-2.336 5.601-5.742 5.601ZM92.478 49.565h12.77v-4.094h-8.403V30.338h-4.367ZM110.381 49.565h4.367V30.338h-4.367ZM121.447 49.565h4.34V37.784l8.485 11.781h3.707V30.338h-4.34v11.7l-8.485-11.7h-3.707ZM144.677 49.565h12.934v-3.707h-8.594v-4.203h7.55v-3.652h-7.55v-3.985h8.293v-3.68h-12.633Zm0 0" fill="#e1b472"/><path d="M181.453 49.562h7.863V30.316h-7.863v5.938h-2.996v-5.938h-7.863v19.246h7.863v-6.27h2.996ZM201.221 49.949c5.855 0 9.348-3.11 9.348-8.496V30.316h-7.864v10.805c0 1.183-.468 1.789-1.484 1.789-.992 0-1.457-.606-1.457-1.79V30.317H191.9v11.137c0 5.387 3.492 8.496 9.32 8.496ZM213.151 49.562h7.59v-4.344l-.113-2.613.223-.027 4.976 6.984h6.324V30.316h-7.59v4.344l.137 2.586-.246.027-4.949-6.957h-6.352ZM239.515 49.562h7.867V37.273h5.277v-6.957h-18.422v6.957h5.278ZM254.747 49.562h14.875v-5.39h-7.371v-1.786h6.492v-5.03h-6.492V35.62h7.152v-5.305h-14.656ZM271.875 49.562h7.726v-4.785h1.125l1.817 4.785h8.359l-2.887-6.46c1.594-1.266 2.473-3.165 2.473-5.555 0-4.48-3.106-7.23-8.192-7.23h-10.421Zm7.617-10.117v-3.438h1.316c1.184 0 1.871.551 1.871 1.704 0 1.156-.687 1.734-1.87 1.734Zm0 0" fill="#fffaeb"/></svg>