<svg xmlns="http://www.w3.org/2000/svg" width="400" viewBox="0 0 300 75" height="100" version="1.0"><defs><clipPath id="a"><path d="M6.273 9.11h158.59v56.78H6.273Zm0 0"/></clipPath></defs><g clip-path="url(#a)"><path d="M6.273 9.11h158.082V66.37H6.273Zm0 0"/></g><path d="M24.104 48.165h4.207V29.638h-4.207v7.12H16.85v-7.12h-4.207v18.527h4.207V40.7h7.254ZM34.765 48.165h12.469v-3.574h-8.285v-4.047h7.277V37.02h-7.277v-3.835h7.992v-3.547H34.765ZM50.828 48.165h4.5l1.242-3.203h7.36l1.241 3.203h4.5l-7.355-18.527h-4.129Zm6.828-6.512 2.594-6.773 2.62 6.773ZM74.14 48.165h7.332c5.848 0 9.766-3.73 9.766-9.262 0-5.508-3.918-9.265-9.766-9.265H74.14Zm4.207-3.863V33.5h2.993c3.336 0 5.586 2.144 5.586 5.402 0 3.254-2.25 5.399-5.532 5.399ZM96.58 48.165h12.309V44.22h-8.102V29.638H96.58ZM113.833 48.165h4.207V29.638h-4.207ZM124.498 48.165h4.183V36.81l8.176 11.355h3.574V29.638h-4.18V40.91l-8.179-11.273h-3.574ZM146.885 48.165h12.468v-3.574h-8.285v-4.047h7.277V37.02h-7.277v-3.835h7.992v-3.547h-12.175Zm0 0" fill="#fff"/><path d="M186.59 48.162h7.578V29.615h-7.578v5.723h-2.891v-5.723h-7.578v18.547h7.578V42.12h2.89ZM205.64 48.533c5.645 0 9.008-2.996 9.008-8.187v-10.73h-7.578v10.413c0 1.137-.45 1.72-1.43 1.72-.953 0-1.406-.583-1.406-1.72V29.615h-7.578v10.73c0 5.192 3.367 8.188 8.984 8.188ZM217.137 48.162h7.316v-4.187l-.11-2.516.216-.027 4.796 6.73h6.094V29.615h-7.316V33.8l.133 2.492-.239.027-4.77-6.703h-6.12ZM242.55 48.162h7.578V36.318h5.086v-6.703H237.46v6.703h5.09ZM257.225 48.162h14.336v-5.195h-7.101v-1.719h6.254v-4.851h-6.254v-1.668h6.89v-5.114h-14.125ZM273.732 48.162h7.45v-4.61h1.086l1.746 4.61h8.054l-2.78-6.226c1.538-1.22 2.386-3.047 2.386-5.352 0-4.32-2.996-6.969-7.899-6.969h-10.043Zm7.34-9.75V35.1h1.274c1.14 0 1.8.527 1.8 1.64 0 1.114-.66 1.672-1.8 1.672Zm0 0"/></svg>